999
"DXF R12 Output" (www.mydxf.blogspot.com)
 0 
SECTION
 2 
HEADER
 9 
$ACADVER
 1 
AC1009
 9 
$EXTMIN
 10 
 0 
 20 
 0 
 9 
$EXTMAX
 10 
 8.5 
 20 
 11 
 0 
ENDSEC
 0 
SECTION
 2 
ENTITIES
0
LINE
8
Layer 1
10
61.000000
20
-17.503000
11
51.004000
21
-17.503000
0
LINE
8
Layer 1
10
51.004000
20
-17.503000
11
51.004000
21
-19.505000
0
LINE
8
Layer 1
10
51.004000
20
-19.505000
11
61.000000
21
-19.505000
0
LINE
8
Layer 1
10
61.000000
20
-19.505000
11
61.000000
21
-23.507000
0
LINE
8
Layer 1
10
61.000000
20
-23.507000
11
61.000000
21
-26.000000
0
LINE
8
Layer 1
10
61.000000
20
-26.000000
11
-89.000000
21
-26.000000
0
LINE
8
Layer 1
10
-89.000000
20
-26.000000
11
-89.000000
21
-23.507000
0
LINE
8
Layer 1
10
-89.000000
20
-23.507000
11
-89.000000
21
-13.502000
0
LINE
8
Layer 1
10
-89.000000
20
-13.502000
11
-89.000000
21
-11.000000
0
LINE
8
Layer 1
10
-89.000000
20
-11.000000
11
61.000000
21
-11.000000
0
LINE
8
Layer 1
10
61.000000
20
-11.000000
11
61.000000
21
-13.502000
0
LINE
8
Layer 1
10
61.000000
20
-13.502000
11
61.000000
21
-17.503000
0
LINE
8
Layer 1
10
47.232000
20
-18.191000
11
47.159000
21
-17.885000
0
LINE
8
Layer 1
10
47.159000
20
-17.885000
11
47.038000
21
-17.595000
0
LINE
8
Layer 1
10
47.038000
20
-17.595000
11
46.874000
21
-17.327000
0
LINE
8
Layer 1
10
46.874000
20
-17.327000
11
46.671000
21
-17.088000
0
LINE
8
Layer 1
10
46.671000
20
-17.088000
11
46.432000
21
-16.884000
0
LINE
8
Layer 1
10
46.432000
20
-16.884000
11
46.164000
21
-16.720000
0
LINE
8
Layer 1
10
46.164000
20
-16.720000
11
45.874000
21
-16.600000
0
LINE
8
Layer 1
10
45.874000
20
-16.600000
11
45.569000
21
-16.527000
0
LINE
8
Layer 1
10
45.569000
20
-16.527000
11
45.256000
21
-16.502000
0
LINE
8
Layer 1
10
45.256000
20
-16.502000
11
45.056000
21
-16.502000
0
LINE
8
Layer 1
10
45.056000
20
-16.502000
11
40.960000
21
-16.502000
0
LINE
8
Layer 1
10
40.960000
20
-16.502000
11
32.768000
21
-16.502000
0
LINE
8
Layer 1
10
32.768000
20
-16.502000
11
24.576000
21
-16.502000
0
LINE
8
Layer 1
10
24.576000
20
-16.502000
11
24.255000
21
-16.502000
0
LINE
8
Layer 1
10
24.255000
20
-16.502000
11
23.942000
21
-16.527000
0
LINE
8
Layer 1
10
23.942000
20
-16.527000
11
23.637000
21
-16.600000
0
LINE
8
Layer 1
10
23.637000
20
-16.600000
11
23.347000
21
-16.720000
0
LINE
8
Layer 1
10
23.347000
20
-16.720000
11
23.079000
21
-16.884000
0
LINE
8
Layer 1
10
23.079000
20
-16.884000
11
22.841000
21
-17.088000
0
LINE
8
Layer 1
10
22.841000
20
-17.088000
11
22.637000
21
-17.327000
0
LINE
8
Layer 1
10
22.637000
20
-17.327000
11
22.473000
21
-17.595000
0
LINE
8
Layer 1
10
22.473000
20
-17.595000
11
22.353000
21
-17.885000
0
LINE
8
Layer 1
10
22.353000
20
-17.885000
11
22.279000
21
-18.191000
0
LINE
8
Layer 1
10
22.279000
20
-18.191000
11
22.255000
21
-18.504000
0
LINE
8
Layer 1
10
22.255000
20
-18.504000
11
22.279000
21
-18.817000
0
LINE
8
Layer 1
10
22.279000
20
-18.817000
11
22.353000
21
-19.123000
0
LINE
8
Layer 1
10
22.353000
20
-19.123000
11
22.473000
21
-19.413000
0
LINE
8
Layer 1
10
22.473000
20
-19.413000
11
22.637000
21
-19.681000
0
LINE
8
Layer 1
10
22.637000
20
-19.681000
11
22.793200
21
-19.864000
0
LINE
8
Layer 1
10
22.793200
20
-19.864000
11
22.841000
21
-19.920000
0
LINE
8
Layer 1
10
22.841000
20
-19.920000
11
23.079000
21
-20.124000
0
LINE
8
Layer 1
10
23.079000
20
-20.124000
11
23.347000
21
-20.288000
0
LINE
8
Layer 1
10
23.347000
20
-20.288000
11
23.637000
21
-20.408000
0
LINE
8
Layer 1
10
23.637000
20
-20.408000
11
23.942000
21
-20.481000
0
LINE
8
Layer 1
10
23.942000
20
-20.481000
11
24.255000
21
-20.506000
0
LINE
8
Layer 1
10
24.255000
20
-20.506000
11
24.576000
21
-20.506000
0
LINE
8
Layer 1
10
24.576000
20
-20.506000
11
32.768000
21
-20.506000
0
LINE
8
Layer 1
10
32.768000
20
-20.506000
11
40.960000
21
-20.506000
0
LINE
8
Layer 1
10
40.960000
20
-20.506000
11
45.056000
21
-20.506000
0
LINE
8
Layer 1
10
45.056000
20
-20.506000
11
45.256000
21
-20.506000
0
LINE
8
Layer 1
10
45.256000
20
-20.506000
11
45.569000
21
-20.481000
0
LINE
8
Layer 1
10
45.569000
20
-20.481000
11
45.874000
21
-20.408000
0
LINE
8
Layer 1
10
45.874000
20
-20.408000
11
46.164000
21
-20.288000
0
LINE
8
Layer 1
10
46.164000
20
-20.288000
11
46.432000
21
-20.124000
0
LINE
8
Layer 1
10
46.432000
20
-20.124000
11
46.671000
21
-19.920000
0
LINE
8
Layer 1
10
46.671000
20
-19.920000
11
46.718600
21
-19.864000
0
LINE
8
Layer 1
10
46.718600
20
-19.864000
11
46.874000
21
-19.681000
0
LINE
8
Layer 1
10
46.874000
20
-19.681000
11
47.038000
21
-19.413000
0
LINE
8
Layer 1
10
47.038000
20
-19.413000
11
47.159000
21
-19.123000
0
LINE
8
Layer 1
10
47.159000
20
-19.123000
11
47.232000
21
-18.817000
0
LINE
8
Layer 1
10
47.232000
20
-18.817000
11
47.256000
21
-18.504000
0
LINE
8
Layer 1
10
47.256000
20
-18.504000
11
47.232000
21
-18.191000
0
LINE
8
Layer 1
10
-2.283000
20
-18.927000
11
-2.247000
21
-18.504000
0
LINE
8
Layer 1
10
-2.247000
20
-18.504000
11
-2.283000
21
-18.081000
0
LINE
8
Layer 1
10
-2.283000
20
-18.081000
11
-2.390000
21
-17.670000
0
LINE
8
Layer 1
10
-2.390000
20
-17.670000
11
-2.564000
21
-17.284000
0
LINE
8
Layer 1
10
-2.564000
20
-17.284000
11
-2.802000
21
-16.932000
0
LINE
8
Layer 1
10
-2.802000
20
-16.932000
11
-3.095000
21
-16.625000
0
LINE
8
Layer 1
10
-3.095000
20
-16.625000
11
-3.436000
21
-16.373000
0
LINE
8
Layer 1
10
-3.436000
20
-16.373000
11
-3.815000
21
-16.182000
0
LINE
8
Layer 1
10
-3.815000
20
-16.182000
11
-4.096000
21
-16.096000
0
LINE
8
Layer 1
10
-4.096000
20
-16.096000
11
-4.220000
21
-16.058000
0
LINE
8
Layer 1
10
-4.220000
20
-16.058000
11
-4.641000
21
-16.004000
0
LINE
8
Layer 1
10
-4.641000
20
-16.004000
11
-5.065000
21
-16.022000
0
LINE
8
Layer 1
10
-5.065000
20
-16.022000
11
-5.479000
21
-16.111000
0
LINE
8
Layer 1
10
-5.479000
20
-16.111000
11
-5.873000
21
-16.269000
0
LINE
8
Layer 1
10
-5.873000
20
-16.269000
11
-6.234000
21
-16.492000
0
LINE
8
Layer 1
10
-6.234000
20
-16.492000
11
-6.552000
21
-16.772000
0
LINE
8
Layer 1
10
-6.552000
20
-16.772000
11
-6.818000
21
-17.103000
0
LINE
8
Layer 1
10
-6.818000
20
-17.103000
11
-7.025000
21
-17.473000
0
LINE
8
Layer 1
10
-7.025000
20
-17.473000
11
-7.167000
21
-17.873000
0
LINE
8
Layer 1
10
-7.167000
20
-17.873000
11
-7.238000
21
-18.292000
0
LINE
8
Layer 1
10
-7.238000
20
-18.292000
11
-7.238000
21
-18.716000
0
LINE
8
Layer 1
10
-7.238000
20
-18.716000
11
-7.167000
21
-19.135000
0
LINE
8
Layer 1
10
-7.167000
20
-19.135000
11
-7.025000
21
-19.535000
0
LINE
8
Layer 1
10
-7.025000
20
-19.535000
11
-6.840940
21
-19.864000
0
LINE
8
Layer 1
10
-6.840940
20
-19.864000
11
-6.818000
21
-19.905000
0
LINE
8
Layer 1
10
-6.818000
20
-19.905000
11
-6.552000
21
-20.236000
0
LINE
8
Layer 1
10
-6.552000
20
-20.236000
11
-6.234000
21
-20.516000
0
LINE
8
Layer 1
10
-6.234000
20
-20.516000
11
-5.873000
21
-20.739000
0
LINE
8
Layer 1
10
-5.873000
20
-20.739000
11
-5.479000
21
-20.897000
0
LINE
8
Layer 1
10
-5.479000
20
-20.897000
11
-5.065000
21
-20.986000
0
LINE
8
Layer 1
10
-5.065000
20
-20.986000
11
-4.641000
21
-21.004000
0
LINE
8
Layer 1
10
-4.641000
20
-21.004000
11
-4.220000
21
-20.950000
0
LINE
8
Layer 1
10
-4.220000
20
-20.950000
11
-4.096000
21
-20.912000
0
LINE
8
Layer 1
10
-4.096000
20
-20.912000
11
-3.815000
21
-20.826000
0
LINE
8
Layer 1
10
-3.815000
20
-20.826000
11
-3.436000
21
-20.635000
0
LINE
8
Layer 1
10
-3.436000
20
-20.635000
11
-3.095000
21
-20.383000
0
LINE
8
Layer 1
10
-3.095000
20
-20.383000
11
-2.802000
21
-20.076000
0
LINE
8
Layer 1
10
-2.802000
20
-20.076000
11
-2.564000
21
-19.724000
0
LINE
8
Layer 1
10
-2.564000
20
-19.724000
11
-2.390000
21
-19.338000
0
LINE
8
Layer 1
10
-2.390000
20
-19.338000
11
-2.283000
21
-18.927000
0
LINE
8
Layer 1
10
-78.998000
20
-13.998000
11
-85.003000
21
-13.998000
0
LINE
8
Layer 1
10
-85.003000
20
-13.998000
11
-85.003000
21
-23.003000
0
LINE
8
Layer 1
10
-85.003000
20
-23.003000
11
-78.998000
21
-23.003000
0
LINE
8
Layer 1
10
-78.998000
20
-23.003000
11
-78.998000
21
-13.998000
0
LINE
8
Layer 1
10
-78.998000
20
-13.998000
11
-78.998000
21
-13.998000
 0 
ENDSEC
 0 
EOF