999
"DXF R12 Output" (www.mydxf.blogspot.com)
 0 
SECTION
 2 
HEADER
 9 
$ACADVER
 1 
AC1009
 9 
$EXTMIN
 10 
 0 
 20 
 0 
 9 
$EXTMAX
 10 
 8.5 
 20 
 11 
 0 
ENDSEC
 0 
SECTION
 2 
ENTITIES
0
LINE
8
Layer 1
10
-11.250000
20
45.500000
11
-8.192000
21
45.500000
0
LINE
8
Layer 1
10
-8.192000
20
45.500000
11
-4.096000
21
45.500000
0
LINE
8
Layer 1
10
-4.096000
20
45.500000
11
0.000000
21
45.500000
0
LINE
8
Layer 1
10
0.000000
20
45.500000
11
6.957200
21
45.500000
0
LINE
8
Layer 1
10
6.957200
20
45.500000
11
7.591990
21
45.500000
0
LINE
8
Layer 1
10
7.591990
20
45.500000
11
8.192000
21
45.500000
0
LINE
8
Layer 1
10
8.192000
20
45.500000
11
11.250000
21
45.500000
0
LINE
8
Layer 1
10
11.250000
20
45.500000
11
11.250000
21
44.386200
0
LINE
8
Layer 1
10
11.250000
20
44.386200
11
11.250000
21
43.846200
0
LINE
8
Layer 1
10
11.250000
20
43.846200
11
11.250000
21
43.385600
0
LINE
8
Layer 1
10
11.250000
20
43.385600
11
11.250000
21
43.288000
0
LINE
8
Layer 1
10
11.250000
20
43.288000
11
11.250000
21
42.589400
0
LINE
8
Layer 1
10
11.250000
20
42.589400
11
11.250000
21
42.216800
0
LINE
8
Layer 1
10
11.250000
20
42.216800
11
11.250000
21
41.836900
0
LINE
8
Layer 1
10
11.250000
20
41.836900
11
11.250000
21
41.406600
0
LINE
8
Layer 1
10
11.250000
20
41.406600
11
11.250000
21
41.240000
0
LINE
8
Layer 1
10
11.250000
20
41.240000
11
11.250000
21
39.192000
0
LINE
8
Layer 1
10
11.250000
20
39.192000
11
11.250000
21
31.000000
0
LINE
8
Layer 1
10
11.250000
20
31.000000
11
11.250000
21
23.900000
0
LINE
8
Layer 1
10
11.250000
20
23.900000
11
11.250000
21
22.808000
0
LINE
8
Layer 1
10
11.250000
20
22.808000
11
11.250000
21
16.500000
0
LINE
8
Layer 1
10
11.250000
20
16.500000
11
8.192000
21
16.500000
0
LINE
8
Layer 1
10
8.192000
20
16.500000
11
4.096000
21
16.500000
0
LINE
8
Layer 1
10
4.096000
20
16.500000
11
0.000000
21
16.500000
0
LINE
8
Layer 1
10
0.000000
20
16.500000
11
-4.096000
21
16.500000
0
LINE
8
Layer 1
10
-4.096000
20
16.500000
11
-8.192000
21
16.500000
0
LINE
8
Layer 1
10
-8.192000
20
16.500000
11
-11.250000
21
16.500000
0
LINE
8
Layer 1
10
-11.250000
20
16.500000
11
-11.250000
21
22.808000
0
LINE
8
Layer 1
10
-11.250000
20
22.808000
11
-11.250000
21
31.000000
0
LINE
8
Layer 1
10
-11.250000
20
31.000000
11
-11.250000
21
39.192000
0
LINE
8
Layer 1
10
-11.250000
20
39.192000
11
-11.250000
21
39.395100
0
LINE
8
Layer 1
10
-11.250000
20
39.395100
11
-11.250000
21
39.833300
0
LINE
8
Layer 1
10
-11.250000
20
39.833300
11
-11.250000
21
40.231300
0
LINE
8
Layer 1
10
-11.250000
20
40.231300
11
-11.250000
21
40.620800
0
LINE
8
Layer 1
10
-11.250000
20
40.620800
11
-11.250000
21
41.000100
0
LINE
8
Layer 1
10
-11.250000
20
41.000100
11
-11.250000
21
41.240000
0
LINE
8
Layer 1
10
-11.250000
20
41.240000
11
-11.250000
21
43.288000
0
LINE
8
Layer 1
10
-11.250000
20
43.288000
11
-11.250000
21
45.500000
0
LINE
8
Layer 1
10
7.868000
20
43.356000
11
7.565000
21
43.203000
0
LINE
8
Layer 1
10
7.565000
20
43.203000
11
7.293000
21
43.001000
0
LINE
8
Layer 1
10
7.293000
20
43.001000
11
7.058000
21
42.756000
0
LINE
8
Layer 1
10
7.058000
20
42.756000
11
6.868000
21
42.475000
0
LINE
8
Layer 1
10
6.868000
20
42.475000
11
6.728000
21
42.166000
0
LINE
8
Layer 1
10
6.728000
20
42.166000
11
6.643000
21
41.838000
0
LINE
8
Layer 1
10
6.643000
20
41.838000
11
6.614000
21
41.500000
0
LINE
8
Layer 1
10
6.614000
20
41.500000
11
6.643000
21
41.162000
0
LINE
8
Layer 1
10
6.643000
20
41.162000
11
6.728000
21
40.834000
0
LINE
8
Layer 1
10
6.728000
20
40.834000
11
6.868000
21
40.525000
0
LINE
8
Layer 1
10
6.868000
20
40.525000
11
7.058000
21
40.244000
0
LINE
8
Layer 1
10
7.058000
20
40.244000
11
7.293000
21
39.999000
0
LINE
8
Layer 1
10
7.293000
20
39.999000
11
7.565000
21
39.797000
0
LINE
8
Layer 1
10
7.565000
20
39.797000
11
7.868000
21
39.644000
0
LINE
8
Layer 1
10
7.868000
20
39.644000
11
8.192000
21
39.545300
0
LINE
8
Layer 1
10
8.192000
20
39.545300
11
8.193000
21
39.545000
0
LINE
8
Layer 1
10
8.193000
20
39.545000
11
8.529000
21
39.502000
0
LINE
8
Layer 1
10
8.529000
20
39.502000
11
8.868000
21
39.516000
0
LINE
8
Layer 1
10
8.868000
20
39.516000
11
9.200000
21
39.588000
0
LINE
8
Layer 1
10
9.200000
20
39.588000
11
9.514000
21
39.714000
0
LINE
8
Layer 1
10
9.514000
20
39.714000
11
9.803000
21
39.892000
0
LINE
8
Layer 1
10
9.803000
20
39.892000
11
10.058000
21
40.116000
0
LINE
8
Layer 1
10
10.058000
20
40.116000
11
10.271000
21
40.380000
0
LINE
8
Layer 1
10
10.271000
20
40.380000
11
10.437000
21
40.676000
0
LINE
8
Layer 1
10
10.437000
20
40.676000
11
10.550000
21
40.996000
0
LINE
8
Layer 1
10
10.550000
20
40.996000
11
10.591600
21
41.240000
0
LINE
8
Layer 1
10
10.591600
20
41.240000
11
10.607000
21
41.330000
0
LINE
8
Layer 1
10
10.607000
20
41.330000
11
10.607000
21
41.670000
0
LINE
8
Layer 1
10
10.607000
20
41.670000
11
10.550000
21
42.004000
0
LINE
8
Layer 1
10
10.550000
20
42.004000
11
10.437000
21
42.324000
0
LINE
8
Layer 1
10
10.437000
20
42.324000
11
10.271000
21
42.620000
0
LINE
8
Layer 1
10
10.271000
20
42.620000
11
10.058000
21
42.884000
0
LINE
8
Layer 1
10
10.058000
20
42.884000
11
9.803000
21
43.108000
0
LINE
8
Layer 1
10
9.803000
20
43.108000
11
9.514000
21
43.286000
0
LINE
8
Layer 1
10
9.514000
20
43.286000
11
9.509020
21
43.288000
0
LINE
8
Layer 1
10
9.509020
20
43.288000
11
9.200000
21
43.412000
0
LINE
8
Layer 1
10
9.200000
20
43.412000
11
8.868000
21
43.484000
0
LINE
8
Layer 1
10
8.868000
20
43.484000
11
8.529000
21
43.498000
0
LINE
8
Layer 1
10
8.529000
20
43.498000
11
8.193000
21
43.455000
0
LINE
8
Layer 1
10
8.193000
20
43.455000
11
8.192000
21
43.454700
0
LINE
8
Layer 1
10
8.192000
20
43.454700
11
7.868000
21
43.356000
0
LINE
8
Layer 1
10
1.676000
20
18.797000
11
1.842000
21
19.093000
0
LINE
8
Layer 1
10
1.842000
20
19.093000
11
1.955000
21
19.413000
0
LINE
8
Layer 1
10
1.955000
20
19.413000
11
2.012000
21
19.747000
0
LINE
8
Layer 1
10
2.012000
20
19.747000
11
2.012000
21
20.086000
0
LINE
8
Layer 1
10
2.012000
20
20.086000
11
1.955000
21
20.421000
0
LINE
8
Layer 1
10
1.955000
20
20.421000
11
1.842000
21
20.741000
0
LINE
8
Layer 1
10
1.842000
20
20.741000
11
1.676000
21
21.037000
0
LINE
8
Layer 1
10
1.676000
20
21.037000
11
1.463000
21
21.301000
0
LINE
8
Layer 1
10
1.463000
20
21.301000
11
1.208000
21
21.525000
0
LINE
8
Layer 1
10
1.208000
20
21.525000
11
0.920000
21
21.703000
0
LINE
8
Layer 1
10
0.920000
20
21.703000
11
0.605000
21
21.829000
0
LINE
8
Layer 1
10
0.605000
20
21.829000
11
0.273000
21
21.901000
0
LINE
8
Layer 1
10
0.273000
20
21.901000
11
0.000000
21
21.912300
0
LINE
8
Layer 1
10
0.000000
20
21.912300
11
-0.066000
21
21.915000
0
LINE
8
Layer 1
10
-0.066000
20
21.915000
11
-0.402000
21
21.872000
0
LINE
8
Layer 1
10
-0.402000
20
21.872000
11
-0.727000
21
21.773000
0
LINE
8
Layer 1
10
-0.727000
20
21.773000
11
-1.030000
21
21.620000
0
LINE
8
Layer 1
10
-1.030000
20
21.620000
11
-1.302000
21
21.418000
0
LINE
8
Layer 1
10
-1.302000
20
21.418000
11
-1.537000
21
21.173000
0
LINE
8
Layer 1
10
-1.537000
20
21.173000
11
-1.727000
21
20.892000
0
LINE
8
Layer 1
10
-1.727000
20
20.892000
11
-1.867000
21
20.583000
0
LINE
8
Layer 1
10
-1.867000
20
20.583000
11
-1.952000
21
20.255000
0
LINE
8
Layer 1
10
-1.952000
20
20.255000
11
-1.981000
21
19.917000
0
LINE
8
Layer 1
10
-1.981000
20
19.917000
11
-1.952000
21
19.579000
0
LINE
8
Layer 1
10
-1.952000
20
19.579000
11
-1.867000
21
19.251000
0
LINE
8
Layer 1
10
-1.867000
20
19.251000
11
-1.727000
21
18.941000
0
LINE
8
Layer 1
10
-1.727000
20
18.941000
11
-1.572160
21
18.712000
0
LINE
8
Layer 1
10
-1.572160
20
18.712000
11
-1.537000
21
18.660000
0
LINE
8
Layer 1
10
-1.537000
20
18.660000
11
-1.302000
21
18.416000
0
LINE
8
Layer 1
10
-1.302000
20
18.416000
11
-1.030000
21
18.214000
0
LINE
8
Layer 1
10
-1.030000
20
18.214000
11
-0.727000
21
18.061000
0
LINE
8
Layer 1
10
-0.727000
20
18.061000
11
-0.402000
21
17.962000
0
LINE
8
Layer 1
10
-0.402000
20
17.962000
11
-0.066000
21
17.919000
0
LINE
8
Layer 1
10
-0.066000
20
17.919000
11
0.000000
21
17.921700
0
LINE
8
Layer 1
10
0.000000
20
17.921700
11
0.273000
21
17.933000
0
LINE
8
Layer 1
10
0.273000
20
17.933000
11
0.605000
21
18.005000
0
LINE
8
Layer 1
10
0.605000
20
18.005000
11
0.920000
21
18.131000
0
LINE
8
Layer 1
10
0.920000
20
18.131000
11
1.208000
21
18.309000
0
LINE
8
Layer 1
10
1.208000
20
18.309000
11
1.463000
21
18.533000
0
LINE
8
Layer 1
10
1.463000
20
18.533000
11
1.607420
21
18.712000
0
LINE
8
Layer 1
10
1.607420
20
18.712000
11
1.676000
21
18.797000
0
LINE
8
Layer 1
10
0.000000
20
32.500000
11
-6.000000
21
32.500000
0
LINE
8
Layer 1
10
-6.000000
20
32.500000
11
-6.000000
21
31.000000
0
LINE
8
Layer 1
10
-6.000000
20
31.000000
11
-6.000000
21
23.900000
0
LINE
8
Layer 1
10
-6.000000
20
23.900000
11
0.000000
21
23.900000
0
LINE
8
Layer 1
10
0.000000
20
23.900000
11
6.038000
21
23.900000
0
LINE
8
Layer 1
10
6.038000
20
23.900000
11
6.038000
21
31.000000
0
LINE
8
Layer 1
10
6.038000
20
31.000000
11
6.038000
21
32.500000
0
LINE
8
Layer 1
10
6.038000
20
32.500000
11
0.000000
21
32.500000
0
LINE
8
Layer 1
10
-7.990000
20
43.412000
11
-8.192000
21
43.455800
0
LINE
8
Layer 1
10
-8.192000
20
43.455800
11
-8.322000
21
43.484000
0
LINE
8
Layer 1
10
-8.322000
20
43.484000
11
-8.661000
21
43.498000
0
LINE
8
Layer 1
10
-8.661000
20
43.498000
11
-8.997000
21
43.455000
0
LINE
8
Layer 1
10
-8.997000
20
43.455000
11
-9.322000
21
43.356000
0
LINE
8
Layer 1
10
-9.322000
20
43.356000
11
-9.456220
21
43.288000
0
LINE
8
Layer 1
10
-9.456220
20
43.288000
11
-9.624000
21
43.203000
0
LINE
8
Layer 1
10
-9.624000
20
43.203000
11
-9.897000
21
43.001000
0
LINE
8
Layer 1
10
-9.897000
20
43.001000
11
-10.132000
21
42.756000
0
LINE
8
Layer 1
10
-10.132000
20
42.756000
11
-10.322000
21
42.475000
0
LINE
8
Layer 1
10
-10.322000
20
42.475000
11
-10.462000
21
42.166000
0
LINE
8
Layer 1
10
-10.462000
20
42.166000
11
-10.547000
21
41.838000
0
LINE
8
Layer 1
10
-10.547000
20
41.838000
11
-10.576000
21
41.500000
0
LINE
8
Layer 1
10
-10.576000
20
41.500000
11
-10.553700
21
41.240000
0
LINE
8
Layer 1
10
-10.553700
20
41.240000
11
-10.547000
21
41.162000
0
LINE
8
Layer 1
10
-10.547000
20
41.162000
11
-10.462000
21
40.834000
0
LINE
8
Layer 1
10
-10.462000
20
40.834000
11
-10.322000
21
40.525000
0
LINE
8
Layer 1
10
-10.322000
20
40.525000
11
-10.132000
21
40.244000
0
LINE
8
Layer 1
10
-10.132000
20
40.244000
11
-9.897000
21
39.999000
0
LINE
8
Layer 1
10
-9.897000
20
39.999000
11
-9.624000
21
39.797000
0
LINE
8
Layer 1
10
-9.624000
20
39.797000
11
-9.322000
21
39.644000
0
LINE
8
Layer 1
10
-9.322000
20
39.644000
11
-8.997000
21
39.545000
0
LINE
8
Layer 1
10
-8.997000
20
39.545000
11
-8.661000
21
39.502000
0
LINE
8
Layer 1
10
-8.661000
20
39.502000
11
-8.322000
21
39.516000
0
LINE
8
Layer 1
10
-8.322000
20
39.516000
11
-8.192000
21
39.544200
0
LINE
8
Layer 1
10
-8.192000
20
39.544200
11
-7.990000
21
39.588000
0
LINE
8
Layer 1
10
-7.990000
20
39.588000
11
-7.675000
21
39.714000
0
LINE
8
Layer 1
10
-7.675000
20
39.714000
11
-7.387000
21
39.892000
0
LINE
8
Layer 1
10
-7.387000
20
39.892000
11
-7.132000
21
40.116000
0
LINE
8
Layer 1
10
-7.132000
20
40.116000
11
-6.919000
21
40.380000
0
LINE
8
Layer 1
10
-6.919000
20
40.380000
11
-6.753000
21
40.676000
0
LINE
8
Layer 1
10
-6.753000
20
40.676000
11
-6.640000
21
40.996000
0
LINE
8
Layer 1
10
-6.640000
20
40.996000
11
-6.583000
21
41.330000
0
LINE
8
Layer 1
10
-6.583000
20
41.330000
11
-6.583000
21
41.670000
0
LINE
8
Layer 1
10
-6.583000
20
41.670000
11
-6.640000
21
42.004000
0
LINE
8
Layer 1
10
-6.640000
20
42.004000
11
-6.753000
21
42.324000
0
LINE
8
Layer 1
10
-6.753000
20
42.324000
11
-6.919000
21
42.620000
0
LINE
8
Layer 1
10
-6.919000
20
42.620000
11
-7.132000
21
42.884000
0
LINE
8
Layer 1
10
-7.132000
20
42.884000
11
-7.387000
21
43.108000
0
LINE
8
Layer 1
10
-7.387000
20
43.108000
11
-7.675000
21
43.286000
0
LINE
8
Layer 1
10
-7.675000
20
43.286000
11
-7.680000
21
43.288000
0
LINE
8
Layer 1
10
-7.680000
20
43.288000
11
-7.990000
21
43.412000
0
LINE
8
Layer 1
10
-7.990000
20
43.412000
11
-7.990000
21
43.412000
 0 
ENDSEC
 0 
EOF