999
"DXF R12 Output" (www.mydxf.blogspot.com)
 0 
SECTION
 2 
HEADER
 9 
$ACADVER
 1 
AC1009
 9 
$EXTMIN
 10 
 0 
 20 
 0 
 9 
$EXTMAX
 10 
 8.5 
 20 
 11 
 0 
ENDSEC
 0 
SECTION
 2 
ENTITIES
0
LINE
8
Layer 1
10
7.528000
20
32.860000
11
7.696000
21
32.692000
0
LINE
8
Layer 1
10
7.696000
20
32.692000
11
8.192000
21
32.196000
0
LINE
8
Layer 1
10
8.192000
20
32.196000
11
8.360000
21
32.028000
0
LINE
8
Layer 1
10
8.360000
20
32.028000
11
9.101000
21
31.113000
0
LINE
8
Layer 1
10
9.101000
20
31.113000
11
9.743000
21
30.125000
0
LINE
8
Layer 1
10
9.743000
20
30.125000
11
10.277000
21
29.076000
0
LINE
8
Layer 1
10
10.277000
20
29.076000
11
10.461100
21
28.596000
0
LINE
8
Layer 1
10
10.461100
20
28.596000
11
10.699000
21
27.976000
0
LINE
8
Layer 1
10
10.699000
20
27.976000
11
11.004000
21
26.839000
0
LINE
8
Layer 1
10
11.004000
20
26.839000
11
11.188000
21
25.676000
0
LINE
8
Layer 1
10
11.188000
20
25.676000
11
11.250000
21
24.500000
0
LINE
8
Layer 1
10
11.250000
20
24.500000
11
11.237300
21
24.259700
0
LINE
8
Layer 1
10
11.237300
20
24.259700
11
11.212700
21
23.792800
0
LINE
8
Layer 1
10
11.212700
20
23.792800
11
11.189700
21
23.356000
0
LINE
8
Layer 1
10
11.189700
20
23.356000
11
11.188000
21
23.324000
0
LINE
8
Layer 1
10
11.188000
20
23.324000
11
11.118700
21
22.886200
0
LINE
8
Layer 1
10
11.118700
20
22.886200
11
11.041200
21
22.396400
0
LINE
8
Layer 1
10
11.041200
20
22.396400
11
11.004000
21
22.161000
0
LINE
8
Layer 1
10
11.004000
20
22.161000
11
10.699000
21
21.024000
0
LINE
8
Layer 1
10
10.699000
20
21.024000
11
10.461100
21
20.404000
0
LINE
8
Layer 1
10
10.461100
20
20.404000
11
10.277000
21
19.924000
0
LINE
8
Layer 1
10
10.277000
20
19.924000
11
9.743000
21
18.875000
0
LINE
8
Layer 1
10
9.743000
20
18.875000
11
9.101000
21
17.887000
0
LINE
8
Layer 1
10
9.101000
20
17.887000
11
8.360000
21
16.972000
0
LINE
8
Layer 1
10
8.360000
20
16.972000
11
8.192000
21
16.804000
0
LINE
8
Layer 1
10
8.192000
20
16.804000
11
7.696000
21
16.308000
0
LINE
8
Layer 1
10
7.696000
20
16.308000
11
7.528000
21
16.140000
0
LINE
8
Layer 1
10
7.528000
20
16.140000
11
6.613000
21
15.399000
0
LINE
8
Layer 1
10
6.613000
20
15.399000
11
5.625000
21
14.757000
0
LINE
8
Layer 1
10
5.625000
20
14.757000
11
4.576000
21
14.223000
0
LINE
8
Layer 1
10
4.576000
20
14.223000
11
3.476000
21
13.801000
0
LINE
8
Layer 1
10
3.476000
20
13.801000
11
2.339000
21
13.496000
0
LINE
8
Layer 1
10
2.339000
20
13.496000
11
1.176000
21
13.312000
0
LINE
8
Layer 1
10
1.176000
20
13.312000
11
0.000000
21
13.250000
0
LINE
8
Layer 1
10
0.000000
20
13.250000
11
-1.176000
21
13.312000
0
LINE
8
Layer 1
10
-1.176000
20
13.312000
11
-2.339000
21
13.496000
0
LINE
8
Layer 1
10
-2.339000
20
13.496000
11
-3.476000
21
13.801000
0
LINE
8
Layer 1
10
-3.476000
20
13.801000
11
-4.576000
21
14.223000
0
LINE
8
Layer 1
10
-4.576000
20
14.223000
11
-5.625000
21
14.757000
0
LINE
8
Layer 1
10
-5.625000
20
14.757000
11
-6.613000
21
15.399000
0
LINE
8
Layer 1
10
-6.613000
20
15.399000
11
-7.528000
21
16.140000
0
LINE
8
Layer 1
10
-7.528000
20
16.140000
11
-7.696000
21
16.308000
0
LINE
8
Layer 1
10
-7.696000
20
16.308000
11
-8.192000
21
16.804000
0
LINE
8
Layer 1
10
-8.192000
20
16.804000
11
-8.360000
21
16.972000
0
LINE
8
Layer 1
10
-8.360000
20
16.972000
11
-9.101000
21
17.887000
0
LINE
8
Layer 1
10
-9.101000
20
17.887000
11
-9.743000
21
18.875000
0
LINE
8
Layer 1
10
-9.743000
20
18.875000
11
-10.277000
21
19.924000
0
LINE
8
Layer 1
10
-10.277000
20
19.924000
11
-10.461100
21
20.404000
0
LINE
8
Layer 1
10
-10.461100
20
20.404000
11
-10.699000
21
21.024000
0
LINE
8
Layer 1
10
-10.699000
20
21.024000
11
-11.004000
21
22.161000
0
LINE
8
Layer 1
10
-11.004000
20
22.161000
11
-11.188000
21
23.324000
0
LINE
8
Layer 1
10
-11.188000
20
23.324000
11
-11.250000
21
24.500000
0
LINE
8
Layer 1
10
-11.250000
20
24.500000
11
-11.249500
21
24.509300
0
LINE
8
Layer 1
10
-11.249500
20
24.509300
11
-11.224900
21
24.975600
0
LINE
8
Layer 1
10
-11.224900
20
24.975600
11
-11.201400
21
25.422800
0
LINE
8
Layer 1
10
-11.201400
20
25.422800
11
-11.188000
21
25.676000
0
LINE
8
Layer 1
10
-11.188000
20
25.676000
11
-11.156200
21
25.877100
0
LINE
8
Layer 1
10
-11.156200
20
25.877100
11
-11.080100
21
26.357700
0
LINE
8
Layer 1
10
-11.080100
20
26.357700
11
-11.004000
21
26.839000
0
LINE
8
Layer 1
10
-11.004000
20
26.839000
11
-10.699000
21
27.976000
0
LINE
8
Layer 1
10
-10.699000
20
27.976000
11
-10.461100
21
28.596000
0
LINE
8
Layer 1
10
-10.461100
20
28.596000
11
-10.277000
21
29.076000
0
LINE
8
Layer 1
10
-10.277000
20
29.076000
11
-9.743000
21
30.125000
0
LINE
8
Layer 1
10
-9.743000
20
30.125000
11
-9.101000
21
31.113000
0
LINE
8
Layer 1
10
-9.101000
20
31.113000
11
-8.360000
21
32.028000
0
LINE
8
Layer 1
10
-8.360000
20
32.028000
11
-8.192000
21
32.196000
0
LINE
8
Layer 1
10
-8.192000
20
32.196000
11
-7.696000
21
32.692000
0
LINE
8
Layer 1
10
-7.696000
20
32.692000
11
-7.528000
21
32.860000
0
LINE
8
Layer 1
10
-7.528000
20
32.860000
11
-6.613000
21
33.601000
0
LINE
8
Layer 1
10
-6.613000
20
33.601000
11
-5.625000
21
34.243000
0
LINE
8
Layer 1
10
-5.625000
20
34.243000
11
-4.576000
21
34.777000
0
LINE
8
Layer 1
10
-4.576000
20
34.777000
11
-3.476000
21
35.199000
0
LINE
8
Layer 1
10
-3.476000
20
35.199000
11
-2.339000
21
35.504000
0
LINE
8
Layer 1
10
-2.339000
20
35.504000
11
-1.176000
21
35.688000
0
LINE
8
Layer 1
10
-1.176000
20
35.688000
11
0.000000
21
35.750000
0
LINE
8
Layer 1
10
0.000000
20
35.750000
11
1.176000
21
35.688000
0
LINE
8
Layer 1
10
1.176000
20
35.688000
11
2.339000
21
35.504000
0
LINE
8
Layer 1
10
2.339000
20
35.504000
11
3.476000
21
35.199000
0
LINE
8
Layer 1
10
3.476000
20
35.199000
11
4.576000
21
34.777000
0
LINE
8
Layer 1
10
4.576000
20
34.777000
11
5.625000
21
34.243000
0
LINE
8
Layer 1
10
5.625000
20
34.243000
11
6.613000
21
33.601000
0
LINE
8
Layer 1
10
6.613000
20
33.601000
11
7.528000
21
32.860000
0
LINE
8
Layer 1
10
8.214000
20
25.988000
11
8.192000
21
25.983200
0
LINE
8
Layer 1
10
8.192000
20
25.983200
11
7.966000
21
25.934000
0
LINE
8
Layer 1
10
7.966000
20
25.934000
11
7.729000
21
25.839000
0
LINE
8
Layer 1
10
7.729000
20
25.839000
11
7.513000
21
25.706000
0
LINE
8
Layer 1
10
7.513000
20
25.706000
11
7.322000
21
25.538000
0
LINE
8
Layer 1
10
7.322000
20
25.538000
11
7.162000
21
25.340000
0
LINE
8
Layer 1
10
7.162000
20
25.340000
11
7.038000
21
25.118000
0
LINE
8
Layer 1
10
7.038000
20
25.118000
11
6.953000
21
24.878000
0
LINE
8
Layer 1
10
6.953000
20
24.878000
11
6.910000
21
24.627000
0
LINE
8
Layer 1
10
6.910000
20
24.627000
11
6.910000
21
24.500000
0
LINE
8
Layer 1
10
6.910000
20
24.500000
11
6.910000
21
24.373000
0
LINE
8
Layer 1
10
6.910000
20
24.373000
11
6.953000
21
24.122000
0
LINE
8
Layer 1
10
6.953000
20
24.122000
11
7.038000
21
23.882000
0
LINE
8
Layer 1
10
7.038000
20
23.882000
11
7.162000
21
23.660000
0
LINE
8
Layer 1
10
7.162000
20
23.660000
11
7.211260
21
23.599000
0
LINE
8
Layer 1
10
7.211260
20
23.599000
11
7.322000
21
23.462000
0
LINE
8
Layer 1
10
7.322000
20
23.462000
11
7.513000
21
23.294000
0
LINE
8
Layer 1
10
7.513000
20
23.294000
11
7.729000
21
23.161000
0
LINE
8
Layer 1
10
7.729000
20
23.161000
11
7.966000
21
23.066000
0
LINE
8
Layer 1
10
7.966000
20
23.066000
11
8.192000
21
23.016800
0
LINE
8
Layer 1
10
8.192000
20
23.016800
11
8.214000
21
23.012000
0
LINE
8
Layer 1
10
8.214000
20
23.012000
11
8.468000
21
23.001000
0
LINE
8
Layer 1
10
8.468000
20
23.001000
11
8.721000
21
23.034000
0
LINE
8
Layer 1
10
8.721000
20
23.034000
11
8.964000
21
23.108000
0
LINE
8
Layer 1
10
8.964000
20
23.108000
11
9.191000
21
23.223000
0
LINE
8
Layer 1
10
9.191000
20
23.223000
11
9.396000
21
23.374000
0
LINE
8
Layer 1
10
9.396000
20
23.374000
11
9.572000
21
23.558000
0
LINE
8
Layer 1
10
9.572000
20
23.558000
11
9.714000
21
23.768000
0
LINE
8
Layer 1
10
9.714000
20
23.768000
11
9.819000
21
24.000000
0
LINE
8
Layer 1
10
9.819000
20
24.000000
11
9.883000
21
24.246000
0
LINE
8
Layer 1
10
9.883000
20
24.246000
11
9.905000
21
24.500000
0
LINE
8
Layer 1
10
9.905000
20
24.500000
11
9.883000
21
24.754000
0
LINE
8
Layer 1
10
9.883000
20
24.754000
11
9.819000
21
25.000000
0
LINE
8
Layer 1
10
9.819000
20
25.000000
11
9.714000
21
25.232000
0
LINE
8
Layer 1
10
9.714000
20
25.232000
11
9.572000
21
25.442000
0
LINE
8
Layer 1
10
9.572000
20
25.442000
11
9.396000
21
25.626000
0
LINE
8
Layer 1
10
9.396000
20
25.626000
11
9.191000
21
25.777000
0
LINE
8
Layer 1
10
9.191000
20
25.777000
11
8.964000
21
25.892000
0
LINE
8
Layer 1
10
8.964000
20
25.892000
11
8.721000
21
25.966000
0
LINE
8
Layer 1
10
8.721000
20
25.966000
11
8.468000
21
25.999000
0
LINE
8
Layer 1
10
8.468000
20
25.999000
11
8.214000
21
25.988000
0
LINE
8
Layer 1
10
1.800000
20
24.500000
11
1.800000
21
27.200000
0
LINE
8
Layer 1
10
1.800000
20
27.200000
11
1.323000
21
27.463000
0
LINE
8
Layer 1
10
1.323000
20
27.463000
11
0.809000
21
27.643000
0
LINE
8
Layer 1
10
0.809000
20
27.643000
11
0.272000
21
27.734000
0
LINE
8
Layer 1
10
0.272000
20
27.734000
11
0.000000
21
27.734000
0
LINE
8
Layer 1
10
0.000000
20
27.734000
11
-0.272000
21
27.734000
0
LINE
8
Layer 1
10
-0.272000
20
27.734000
11
-0.809000
21
27.643000
0
LINE
8
Layer 1
10
-0.809000
20
27.643000
11
-1.323000
21
27.463000
0
LINE
8
Layer 1
10
-1.323000
20
27.463000
11
-1.800000
21
27.200000
0
LINE
8
Layer 1
10
-1.800000
20
27.200000
11
-1.800000
21
24.500000
0
LINE
8
Layer 1
10
-1.800000
20
24.500000
11
-1.800000
21
21.800000
0
LINE
8
Layer 1
10
-1.800000
20
21.800000
11
-1.323000
21
21.537000
0
LINE
8
Layer 1
10
-1.323000
20
21.537000
11
-0.809000
21
21.357000
0
LINE
8
Layer 1
10
-0.809000
20
21.357000
11
-0.272000
21
21.266000
0
LINE
8
Layer 1
10
-0.272000
20
21.266000
11
0.000000
21
21.266000
0
LINE
8
Layer 1
10
0.000000
20
21.266000
11
0.272000
21
21.266000
0
LINE
8
Layer 1
10
0.272000
20
21.266000
11
0.809000
21
21.357000
0
LINE
8
Layer 1
10
0.809000
20
21.357000
11
1.323000
21
21.537000
0
LINE
8
Layer 1
10
1.323000
20
21.537000
11
1.800000
21
21.800000
0
LINE
8
Layer 1
10
1.800000
20
21.800000
11
1.800000
21
24.500000
0
LINE
8
Layer 1
10
-8.089000
20
25.966000
11
-8.192000
21
25.979500
0
LINE
8
Layer 1
10
-8.192000
20
25.979500
11
-8.341000
21
25.999000
0
LINE
8
Layer 1
10
-8.341000
20
25.999000
11
-8.595000
21
25.988000
0
LINE
8
Layer 1
10
-8.595000
20
25.988000
11
-8.844000
21
25.934000
0
LINE
8
Layer 1
10
-8.844000
20
25.934000
11
-9.080000
21
25.839000
0
LINE
8
Layer 1
10
-9.080000
20
25.839000
11
-9.297000
21
25.706000
0
LINE
8
Layer 1
10
-9.297000
20
25.706000
11
-9.488000
21
25.538000
0
LINE
8
Layer 1
10
-9.488000
20
25.538000
11
-9.648000
21
25.340000
0
LINE
8
Layer 1
10
-9.648000
20
25.340000
11
-9.772000
21
25.118000
0
LINE
8
Layer 1
10
-9.772000
20
25.118000
11
-9.856000
21
24.878000
0
LINE
8
Layer 1
10
-9.856000
20
24.878000
11
-9.899000
21
24.627000
0
LINE
8
Layer 1
10
-9.899000
20
24.627000
11
-9.899000
21
24.500000
0
LINE
8
Layer 1
10
-9.899000
20
24.500000
11
-9.899000
21
24.373000
0
LINE
8
Layer 1
10
-9.899000
20
24.373000
11
-9.856000
21
24.122000
0
LINE
8
Layer 1
10
-9.856000
20
24.122000
11
-9.772000
21
23.882000
0
LINE
8
Layer 1
10
-9.772000
20
23.882000
11
-9.648000
21
23.660000
0
LINE
8
Layer 1
10
-9.648000
20
23.660000
11
-9.488000
21
23.462000
0
LINE
8
Layer 1
10
-9.488000
20
23.462000
11
-9.297000
21
23.294000
0
LINE
8
Layer 1
10
-9.297000
20
23.294000
11
-9.080000
21
23.161000
0
LINE
8
Layer 1
10
-9.080000
20
23.161000
11
-8.844000
21
23.066000
0
LINE
8
Layer 1
10
-8.844000
20
23.066000
11
-8.595000
21
23.012000
0
LINE
8
Layer 1
10
-8.595000
20
23.012000
11
-8.341000
21
23.001000
0
LINE
8
Layer 1
10
-8.341000
20
23.001000
11
-8.192000
21
23.020500
0
LINE
8
Layer 1
10
-8.192000
20
23.020500
11
-8.089000
21
23.034000
0
LINE
8
Layer 1
10
-8.089000
20
23.034000
11
-7.846000
21
23.108000
0
LINE
8
Layer 1
10
-7.846000
20
23.108000
11
-7.618000
21
23.223000
0
LINE
8
Layer 1
10
-7.618000
20
23.223000
11
-7.414000
21
23.374000
0
LINE
8
Layer 1
10
-7.414000
20
23.374000
11
-7.238000
21
23.558000
0
LINE
8
Layer 1
10
-7.238000
20
23.558000
11
-7.095000
21
23.768000
0
LINE
8
Layer 1
10
-7.095000
20
23.768000
11
-6.990000
21
24.000000
0
LINE
8
Layer 1
10
-6.990000
20
24.000000
11
-6.926000
21
24.246000
0
LINE
8
Layer 1
10
-6.926000
20
24.246000
11
-6.905000
21
24.500000
0
LINE
8
Layer 1
10
-6.905000
20
24.500000
11
-6.926000
21
24.754000
0
LINE
8
Layer 1
10
-6.926000
20
24.754000
11
-6.990000
21
25.000000
0
LINE
8
Layer 1
10
-6.990000
20
25.000000
11
-7.095000
21
25.232000
0
LINE
8
Layer 1
10
-7.095000
20
25.232000
11
-7.238000
21
25.442000
0
LINE
8
Layer 1
10
-7.238000
20
25.442000
11
-7.414000
21
25.626000
0
LINE
8
Layer 1
10
-7.414000
20
25.626000
11
-7.618000
21
25.777000
0
LINE
8
Layer 1
10
-7.618000
20
25.777000
11
-7.846000
21
25.892000
0
LINE
8
Layer 1
10
-7.846000
20
25.892000
11
-8.089000
21
25.966000
0
LINE
8
Layer 1
10
-8.089000
20
25.966000
11
-8.089000
21
25.966000
 0 
ENDSEC
 0 
EOF